<svg width="101" height="100" viewBox="0 0 101 100" fill="none" xmlns="http://www.w3.org/2000/svg">
<g clip-path="url(#clip0_3572_21284)">
<circle cx="50.5" cy="50" r="50" fill="#F4F5F6"/>
<path d="M59.5 61.5L66 58" stroke="#83C150" stroke-width="1.7" stroke-linecap="round"/>
<path d="M62 56L66 54" stroke="#83C150" stroke-width="1.7" stroke-linecap="round"/>
<path d="M51 50V72" stroke="#393939" stroke-width="1.8"/>
<path d="M38.5 43V48.8813C38.5 48.9545 38.54 49.0218 38.6042 49.0569L43.7042 51.8387C43.8375 51.9114 44 51.8149 44 51.6631V46.5" stroke="#393939"/>
<path d="M57.5 31L39 42.5" stroke="#393939"/>
<path d="M63 34L44.5 45.5" stroke="#393939"/>
<path d="M31.5 38.5L50.8997 49.9408C50.9617 49.9774 51.0386 49.9778 51.101 49.9419L71 38.5" stroke="#393939" stroke-width="1.8"/>
<path d="M31.5 38.6142V60.8832C31.5 60.9554 31.5389 61.0219 31.6017 61.0574L50.9017 71.9446C50.9627 71.979 51.0373 71.979 51.0983 71.9446L70.3983 61.0574C70.4611 61.0219 70.5 60.9554 70.5 60.8832V38.6142C70.5 38.5434 70.4626 38.4779 70.4016 38.442L51.1016 27.0599C51.0389 27.0229 50.9611 27.0229 50.8984 27.0599L31.5984 38.442C31.5374 38.4779 31.5 38.5434 31.5 38.6142Z" stroke="#393939" stroke-width="1.8"/>
</g>
<defs>
<clipPath id="clip0_3572_21284">
<rect width="100" height="100" fill="white" transform="translate(0.5)"/>
</clipPath>
</defs>
</svg>
