<svg width="101" height="100" viewBox="0 0 101 100" fill="none" xmlns="http://www.w3.org/2000/svg">
<g clip-path="url(#clip0_3572_21289)">
<circle cx="50.5" cy="50" r="50" fill="#F4F5F6"/>
<path fill-rule="evenodd" clip-rule="evenodd" d="M75.3914 62.9998H70.2126C69.963 65.2463 68.0523 66.9998 65.7408 66.9998C63.4293 66.9998 61.5176 65.2463 61.2679 62.9998H57.0891C56.6205 62.9998 56.5 62.6102 56.5 62.1301V36.8695C56.5 36.3894 56.6205 35.9998 57.0891 35.9998H66.2436C69.7553 35.9998 70.8961 38.2024 72.2154 40.7528L76.1316 48.8662C76.2014 48.9974 76.2402 49.1445 76.2402 49.2936V62.1301C76.2402 62.6102 75.86 62.9998 75.3914 62.9998ZM65.7408 57.9998C67.7917 57.9998 69.5272 59.3796 70.0667 61.2604H74.5426V49.5212L73.8088 47.9961C73.7891 47.9986 73.769 47.9998 73.7488 47.9998H62.732C62.4606 47.9998 62.2402 47.7759 62.2402 47.5V37.7392H57.9379V61.2604H61.4138C61.9536 59.3796 63.6898 57.9998 65.7408 57.9998ZM67.8795 38.0109C68.8013 38.3856 69.3979 39.1571 70.0841 40.383L73.2402 46.9998H63.2402V37.9998H67.6327C67.7179 37.9998 67.8001 38.0034 67.8795 38.0109ZM63.2402 62.4998C63.2402 61.1219 64.3631 59.9998 65.7407 59.9998C67.1174 59.9998 68.2402 61.1219 68.2402 62.4998C68.2402 63.8787 67.1174 64.9998 65.7407 64.9998C64.3631 64.9998 63.2402 63.8787 63.2402 62.4998ZM42 59.9996C40.6211 59.9996 39.5 61.1217 39.5 62.4996C39.5 63.8785 40.6211 64.9996 42 64.9996C43.3789 64.9996 44.5 63.8785 44.5 62.4996C44.5 61.1217 43.3789 59.9996 42 59.9996ZM42 66.9996C39.5193 66.9996 37.5 64.9804 37.5 62.4996C37.5 60.0178 39.5193 57.9996 42 57.9996C44.4807 57.9996 46.5 60.0178 46.5 62.4996C46.5 64.9804 44.4807 66.9996 42 66.9996Z" fill="#393939"/>
<path d="M47.5 62H61.5" stroke="#393939" stroke-width="2" stroke-linecap="round"/>
<path d="M45.5 62H55.5C56.6046 62 57.5 61.1046 57.5 60V35C57.5 33.8954 56.6046 33 55.5 33H33.5C32.3954 33 31.5 33.8954 31.5 35V37.5" stroke="#393939" stroke-width="2" stroke-linecap="round"/>
<path d="M38.5 62H33.5C32.3954 62 31.5 61.1046 31.5 60V54.5" stroke="#393939" stroke-width="2" stroke-linecap="round"/>
<path d="M25.5 51L36.5 51" stroke="#83C150" stroke-width="2" stroke-linecap="round"/>
<path d="M18.5 46L26.5 46" stroke="#83C150" stroke-width="2" stroke-linecap="round"/>
<path d="M31.5 44.5V47.5" stroke="#393939" stroke-width="2" stroke-linecap="round"/>
<path d="M22.5 41L33.5 41" stroke="#83C150" stroke-width="2" stroke-linecap="round"/>
</g>
<defs>
<clipPath id="clip0_3572_21289">
<rect width="100" height="100" fill="white" transform="translate(0.5)"/>
</clipPath>
</defs>
</svg>
