<svg width="101" height="100" viewBox="0 0 101 100" fill="none" xmlns="http://www.w3.org/2000/svg">
<g clip-path="url(#clip0_3572_21279)">
<circle cx="50.5" cy="50" r="50" fill="#F4F5F6"/>
<path d="M40.5 64V57.2C40.5 57.0895 40.5895 57 40.7 57H50.5M60.5 64V57.2C60.5 57.0895 60.4105 57 60.3 57H50.5M50.5 64V57" stroke="#83C150" stroke-width="2"/>
<path d="M45.5 57V49.2C45.5 49.0895 45.5895 49 45.7 49H55.3C55.4105 49 55.5 49.0895 55.5 49.2V57" stroke="#83C150" stroke-width="2"/>
<path d="M35.5 66V45.2C35.5 45.0895 35.5895 45 35.7 45H65.3C65.4105 45 65.5 45.0895 65.5 45.2V66M70.5 66.8V41.1293C70.5 41.0506 70.4538 40.9792 70.3821 40.9469L50.5821 32.0369C50.5299 32.0134 50.4701 32.0134 50.4179 32.0369L30.6179 40.9469C30.5462 40.9792 30.5 41.0506 30.5 41.1293V66.8C30.5 66.9105 30.5895 67 30.7 67H70.3C70.4105 67 70.5 66.9105 70.5 66.8Z" stroke="#393939" stroke-width="2"/>
<path d="M35.5 64C35.2239 64 35 64.2239 35 64.5C35 64.7761 35.2239 65 35.5 65V64ZM66 65C66.2761 65 66.5 64.7761 66.5 64.5C66.5 64.2239 66.2761 64 66 64V65ZM35.5 65H66V64H35.5V65Z" fill="#393939"/>
<path d="M47 40H54" stroke="#393939" stroke-linecap="round"/>
</g>
<defs>
<clipPath id="clip0_3572_21279">
<rect width="100" height="100" fill="white" transform="translate(0.5)"/>
</clipPath>
</defs>
</svg>
