<svg width="101" height="100" viewBox="0 0 101 100" fill="none" xmlns="http://www.w3.org/2000/svg">
<g clip-path="url(#clip0_3729_22204)">
<circle cx="50.5" cy="50" r="50" fill="#F4F5F6"/>
<path d="M51 68.5C51 68.5 36.0001 68.5 31.5 68.5C27.4868 68.5 27.4504 64.1257 27.4895 63.1792C27.4938 63.0758 27.5793 63 27.6828 63H42.0001H51.0001" stroke="#393939" stroke-width="2" stroke-linecap="round"/>
<path d="M50.9998 68.5C50.9998 68.5 65.9997 68.5 70.4998 68.5C74.513 68.5 74.5496 64.1257 74.5106 63.1792C74.5063 63.0758 74.4208 63 74.3173 63H60H51" stroke="#393939" stroke-width="2" stroke-linecap="round"/>
<path d="M31.4999 63V32.7C31.4999 32.5895 31.5894 32.5 31.6999 32.5H70.2999C70.4103 32.5 70.4999 32.5895 70.4999 32.7V63" stroke="#393939" stroke-width="2" stroke-linecap="round"/>
<path d="M42.226 42.5C42.0031 42.4902 41.7934 42.3857 41.6454 42.2119L39.7055 40.5504C39.4059 40.1978 39.4377 39.6567 39.7758 39.3442C40.1148 39.0326 40.6326 39.0648 40.9322 39.4174L42.2587 40.5504L45.1138 37.7378C45.4388 37.4115 45.9585 37.4223 46.2722 37.7622C46.5849 38.1031 46.5746 38.6442 46.2478 38.9714L42.8253 42.2617C42.6726 42.415 42.4704 42.5 42.2587 42.5C42.2475 42.5 42.2372 42.5 42.226 42.5Z" fill="#83C150"/>
<path d="M42.226 49.5C42.0031 49.4902 41.7934 49.3857 41.6454 49.2119L39.7055 47.5504C39.4059 47.1978 39.4377 46.6567 39.7758 46.3442C40.1148 46.0326 40.6326 46.0648 40.9322 46.4174L42.2587 47.5504L45.1138 44.7378C45.4388 44.4115 45.9585 44.4223 46.2722 44.7622C46.5849 45.1031 46.5746 45.6442 46.2478 45.9714L42.8253 49.2617C42.6726 49.415 42.4704 49.5 42.2587 49.5C42.2475 49.5 42.2372 49.5 42.226 49.5Z" fill="#83C150"/>
<path d="M42.226 56.5C42.0031 56.4902 41.7934 56.3857 41.6454 56.2119L39.7055 54.5504C39.4059 54.1978 39.4377 53.6567 39.7758 53.3442C40.1148 53.0326 40.6326 53.0648 40.9322 53.4174L42.2587 54.5504L45.1138 51.7378C45.4388 51.4115 45.9585 51.4223 46.2722 51.7622C46.5849 52.1031 46.5746 52.6442 46.2478 52.9714L42.8253 56.2617C42.6726 56.415 42.4704 56.5 42.2587 56.5C42.2475 56.5 42.2372 56.5 42.226 56.5Z" fill="#83C150"/>
<path d="M50.5 40.5H62" stroke="#393939" stroke-linecap="round"/>
<path d="M50.5 47.5H62" stroke="#393939" stroke-linecap="round"/>
<path d="M50.5 54.5H62" stroke="#393939" stroke-linecap="round"/>
</g>
<defs>
<clipPath id="clip0_3729_22204">
<rect width="100" height="100" fill="white" transform="translate(0.5)"/>
</clipPath>
</defs>
</svg>
