<svg width="41" height="48" viewBox="0 0 41 48" fill="none" xmlns="http://www.w3.org/2000/svg">
<path fill-rule="evenodd" clip-rule="evenodd" d="M8.55473 15.8706L2.4372 12.3389L20.4995 1.91128L26.0136 5.09463L8.55473 15.8706ZM7.57334 17.3606L1.7807 14.0163V34.8613L19.5792 45.1372V24.2922L13.9632 21.0499V26.0373C13.9632 26.2184 13.8676 26.3854 13.7118 26.477C13.6324 26.5228 13.5429 26.5462 13.4543 26.5462C13.3688 26.5462 13.2823 26.5248 13.205 26.481L7.83288 23.4611C7.67207 23.3706 7.57334 23.2006 7.57334 23.0174V17.3606ZM12.9454 20.4622V25.168L8.59116 22.7192V17.9483L12.9454 20.4622ZM13.859 18.9328L9.55599 16.4487L27.0153 5.67294L31.3186 8.15727L13.859 18.9328ZM14.8602 19.5109L20.4995 22.7665L38.5618 12.3389L32.3203 8.73559L14.8602 19.5109ZM21.3604 24.3266V45.1715L39.2183 34.8613V14.0163L21.3604 24.3266ZM0.445318 36.1468L20.0445 47.4619C20.1799 47.5403 20.3539 47.581 20.5097 47.581C20.6654 47.581 20.8201 47.5403 20.9545 47.4619L40.5537 36.1468C40.8295 35.988 40.9995 35.6939 40.9995 35.3753V12.4743C40.9995 12.4284 40.9964 12.3837 40.9893 12.3389C41.0432 11.9867 40.8814 11.6213 40.5537 11.432L20.9545 0.116856C20.6847 -0.0388707 20.3143 -0.0388707 20.0445 0.116856L0.445318 11.432C0.169488 11.5918 -0.000488281 11.8859 -0.000488281 12.2035V35.3753C-0.000488281 35.6939 0.169488 35.988 0.445318 36.1468Z" fill="black"/>
</svg>
