<svg width="40" height="41" viewBox="0 0 40 41" fill="none" xmlns="http://www.w3.org/2000/svg">
<circle cx="20" cy="20.0166" r="20" fill="#83C150"/>
<path fill-rule="evenodd" clip-rule="evenodd" d="M24.7929 10.9638L15.2929 20.4953C15.1647 20.6239 15.0738 20.785 15.0299 20.9614L14.0299 24.9747C13.8468 25.7095 14.5102 26.3751 15.2425 26.1914L19.2425 25.1881C19.4184 25.144 19.5789 25.0528 19.7071 24.9242L29.2071 15.3926C30.4261 14.1696 30.4261 12.1868 29.2071 10.9638C27.9882 9.74076 26.0118 9.74076 24.7929 10.9638ZM27.88 12.4808C28.2286 12.9224 28.1995 13.5657 27.7929 13.9737L18.488 23.3084L16.374 23.8392L16.903 21.7171L26.2071 12.3827C26.645 11.9433 27.355 11.9433 27.7929 12.3827L27.88 12.4808ZM20 13.0565C20 12.5024 19.5523 12.0532 19 12.0532H12.7778L12.6086 12.0582C11.1532 12.146 10 13.3579 10 14.8402V27.3259L10.0051 27.4957C10.0925 28.9559 11.3005 30.1129 12.7778 30.1129H25.2222L25.3914 30.1078C26.8468 30.0201 28 28.8081 28 27.3259V21.083L27.9933 20.966C27.9355 20.467 27.5128 20.0797 27 20.0797C26.4477 20.0797 26 20.5289 26 21.083V27.3259L25.9929 27.4318C25.9414 27.8127 25.616 28.1063 25.2222 28.1063H12.7778L12.6722 28.0992C12.2926 28.0475 12 27.721 12 27.3259V14.8402L12.0071 14.7343C12.0586 14.3534 12.384 14.0598 12.7778 14.0598H19L19.1166 14.053C19.614 13.9951 20 13.571 20 13.0565Z" fill="white"/>
</svg>
