<svg width="35" height="44" viewBox="0 0 35 44" fill="none" xmlns="http://www.w3.org/2000/svg">
<path fill-rule="evenodd" clip-rule="evenodd" d="M34.4374 7.48968C27.5295 7.15086 21.7593 4.55364 16.9697 0C12.447 4.31354 6.7786 6.92665 0 7.5122V22.2547C0 32.9694 7.60213 42.1379 18.0303 44L18.4026 43.9258C28.0492 41.9129 35 33.3119 35 23.3105V7.5122L34.4374 7.48968ZM16.7305 3.06241L16.9686 2.86215L17.2077 3.06351C21.6636 6.74194 26.8064 8.90826 32.6261 9.50455L32.8788 9.52761V23.3105L32.875 23.6942C32.7028 32.3738 26.7005 39.8212 18.3444 41.7426L18.0176 41.8139L17.6611 41.74C8.62793 39.7686 2.12121 31.6734 2.12121 22.2547V9.42566L2.52483 9.36625C7.90779 8.51908 12.675 6.39233 16.7305 3.06241ZM16.0327 24.875L14.2039 23.3187C13.9713 23.1197 13.9314 22.7563 14.1167 22.5052C14.3019 22.2565 14.6401 22.2125 14.8728 22.4115L16.3482 23.667L20.1043 20.145C20.3261 19.9344 20.6665 19.9552 20.8647 20.1947C21.0617 20.4342 21.0413 20.7999 20.8183 21.0116L16.7252 24.8554C16.6229 24.9514 16.4958 25 16.3676 25C16.2502 25 16.1318 24.9583 16.0327 24.875ZM17.5 13C22.7467 13 27 17.2533 27 22.5C27 27.7467 22.7467 32 17.5 32C12.2533 32 8 27.7467 8 22.5C8 17.2533 12.2533 13 17.5 13ZM17.5 15C13.3579 15 10 18.3579 10 22.5C10 26.6421 13.3579 30 17.5 30C21.6421 30 25 26.6421 25 22.5C25 18.3579 21.6421 15 17.5 15Z" fill="#83C150"/>
</svg>
