<svg width="51" height="35" viewBox="0 0 51 35" fill="none" xmlns="http://www.w3.org/2000/svg">
<path fill-rule="evenodd" clip-rule="evenodd" d="M32.1299 0.000183105C32.6102 0.000183105 33 0.386867 33 0.865525V3.99918L41.0033 3.99998C44.515 3.99998 45.6558 6.20252 46.9751 8.75294L50.8913 16.8664C50.9612 16.9976 51 17.1447 51 17.2937V30.1303C51 30.6104 50.6197 31 50.1512 31L44.9724 30.9999C44.7229 33.2464 42.8121 35 40.5005 35C38.189 35 36.2773 33.2464 36.0276 30.9999L15.9723 31.0009C15.7223 33.2469 13.8115 35 11.5 35C9.18854 35 7.27773 33.2469 7.02771 31.0009L0.870122 31.0002C0.389815 31.0002 0 30.6125 0 30.1348V0.865525C0 0.386867 0.389815 0.000183105 0.870122 0.000183105H32.1299ZM40.5005 28C39.1228 28 38 29.1221 38 30.5C38 31.8789 39.1228 33 40.5005 33C41.8772 33 43 31.8789 43 30.5C43 29.1221 41.8772 28 40.5005 28ZM9 30.5C9 29.1221 10.1211 28 11.5 28C12.8789 28 14 29.1221 14 30.5C14 31.8789 12.8789 33 11.5 33C10.1211 33 9 31.8789 9 30.5ZM31.259 28.1312L15.3247 28.1311C15.5425 28.4815 15.7135 28.8638 15.829 29.2693L31.2598 29.2695L31.259 28.1312ZM1.74 28.1312L7.67529 28.1311L7.5503 28.3451C7.39131 28.6353 7.26339 28.9449 7.17103 29.2693L1.74024 29.2695L1.74 28.1312ZM37 5.73918H33V29.2602L36.1737 29.2603C36.6949 27.4446 38.3311 26.0959 40.2891 26.0049L40.5005 26C42.5514 26 44.2868 27.3796 44.8264 29.2603L49.3024 29.2606V17.5214L48.5677 15.9964L48.5086 16H37.4918C37.2203 16 37 15.7761 37 15.5002V5.73918ZM1.74024 1.73087H31.2598L31.259 27.1312L14.4804 27.1312C13.686 26.4276 12.6419 26 11.5 26L11.2885 26.0049C10.2295 26.0541 9.26472 26.4713 8.51962 27.1312L1.74 27.1312L1.74024 1.73087ZM39.5502 17C39.7985 17 40 17.224 40 17.5C40 17.776 39.7985 18 39.5502 18H38.4498C38.2024 18 38 17.776 38 17.5C38 17.224 38.2024 17 38.4498 17H39.5502ZM38 5.99998H42.3925C42.4788 5.99998 42.5621 6.00372 42.6419 6.01216C43.5626 6.38741 44.1588 7.15914 44.8448 8.3848L48 15H38V5.99998Z" fill="black"/>
</svg>
