<svg width="43" height="43" viewBox="0 0 43 43" fill="none" xmlns="http://www.w3.org/2000/svg">
<path fill-rule="evenodd" clip-rule="evenodd" d="M21.5002 1.69576C10.5802 1.69576 1.69624 10.5808 1.69624 21.5008C1.69624 32.4198 10.5802 41.3038 21.5002 41.3038C32.4202 41.3038 41.3042 32.4198 41.3042 21.5008C41.3042 10.5808 32.4202 1.69576 21.5002 1.69576ZM21.5002 42.9998C9.64524 42.9998 0.000244141 33.3558 0.000244141 21.5008C0.000244141 9.64476 9.64524 -0.000244141 21.5002 -0.000244141C33.3552 -0.000244141 43.0002 9.64476 43.0002 21.5008C43.0002 33.3558 33.3552 42.9998 21.5002 42.9998ZM21.5002 5.12546C12.4712 5.12546 5.12624 12.4715 5.12624 21.4995C5.12624 30.5285 12.4712 37.8745 21.5002 37.8745C30.5282 37.8745 37.8742 30.5285 37.8742 21.4995C37.8742 12.4715 30.5282 5.12546 21.5002 5.12546ZM21.5002 38.8435C11.9372 38.8435 4.15624 31.0625 4.15624 21.4995C4.15624 11.9375 11.9372 4.15646 21.5002 4.15646C31.0632 4.15646 38.8432 11.9375 38.8432 21.4995C38.8432 31.0625 31.0632 38.8435 21.5002 38.8435ZM21.016 7.66496H21.986V5.61796H21.016V7.66496ZM21.986 37.382H21.016V35.336H21.986V37.382ZM37.381 21.985H35.336V21.015H37.381V21.985ZM5.61804 21.985H7.66404V21.015H5.61804V21.985ZM20.2691 21.4412C20.2691 21.9872 20.7111 22.4282 21.2561 22.4282C21.8021 22.4282 22.2441 21.9872 22.2441 21.4412C22.2441 20.8952 21.8021 20.4522 21.2561 20.4522C20.7111 20.4522 20.2691 20.8952 20.2691 21.4412ZM28.5561 13.5872L29.7631 14.7782L23.6121 21.0182C23.6371 21.1562 23.6551 21.2962 23.6551 21.4412C23.6551 22.7632 22.5791 23.8392 21.2571 23.8392C19.9341 23.8392 18.8581 22.7632 18.8581 21.4412C18.8581 21.2552 18.8831 21.0752 18.9241 20.9012L15.6601 18.3692L16.6991 17.0302L19.8711 19.4892C20.2631 19.2102 20.7391 19.0412 21.2571 19.0412C21.7981 19.0412 22.2931 19.2292 22.6941 19.5322L28.5561 13.5872Z" fill="black"/>
</svg>
