<svg width="22" height="19" viewBox="0 0 22 19" fill="none" xmlns="http://www.w3.org/2000/svg">
<path fill-rule="evenodd" clip-rule="evenodd" d="M8.5348 1.3649C9.05739 0.517503 9.99189 0 10.9995 0C12.0072 0 12.9417 0.517503 13.467 1.36939L21.6137 14.7468C22.1259 15.6193 22.1289 16.6935 21.6217 17.5688C21.1145 18.4441 20.1732 18.9889 19.1384 19L2.85008 18.9999C1.82587 18.9889 0.884548 18.4441 0.377324 17.5688C-0.1299 16.6935 -0.126842 15.6193 0.393163 14.7337L8.5348 1.3649ZM11.8139 2.44841C11.6413 2.17001 11.3325 2 10.9995 2C10.6666 2 10.3578 2.17001 10.1878 2.44397L2.12765 15.6027C1.9584 15.8894 1.95739 16.2423 2.12499 16.5298C2.29259 16.8174 2.60363 16.9964 2.93159 16.9999L19.057 17C19.3954 16.9964 19.7064 16.8174 19.874 16.5298C20.0416 16.2423 20.0406 15.8894 19.8791 15.6156L11.8139 2.44841ZM11.005 13C11.5545 13 12 13.4477 12 14C12 14.5128 11.6159 14.9355 11.121 14.9933L10.995 15C10.4455 15 10 14.5523 10 14C10 13.4872 10.3841 13.0645 10.879 13.0067L11.005 13ZM11.9933 6.88338C11.9355 6.38604 11.5128 6 11 6C10.4477 6 10 6.44772 10 7V11L10.0067 11.1166C10.0645 11.614 10.4872 12 11 12C11.5523 12 12 11.5523 12 11V7L11.9933 6.88338Z" fill="#83C150"/>
</svg>
