<svg width="42" height="40" viewBox="0 0 42 40" fill="none" xmlns="http://www.w3.org/2000/svg">
<path fill-rule="evenodd" clip-rule="evenodd" d="M40.2967 20.2563C39.802 20.2563 39.4004 19.855 39.4004 19.3605C39.4004 9.92607 32.0063 2.22497 22.5666 1.82773C22.0718 1.80726 21.6877 1.39057 21.7081 0.896067C21.7297 0.401567 22.1486 0.023781 22.6414 0.0381144C33.044 0.475281 41.1931 8.96266 41.1931 19.3605C41.1931 19.855 40.7915 20.2563 40.2967 20.2563ZM1.93157 11.0033C2.08114 11.9267 5.28031 30.2202 22.612 36.9814C25.6708 38.3185 27.6089 38.4373 31.1011 35.631C33.4439 33.7482 34.5748 32.1142 34.4631 30.774C34.372 29.6878 33.4408 28.6425 31.6973 27.6668C25.1791 24.021 24.8544 24.5984 23.2911 27.3709L23.0299 27.848C22.908 28.0753 22.6929 28.2391 22.4409 28.2964C22.1889 28.3538 21.9236 28.2995 21.7146 28.148C16.8744 24.6383 13.0226 19.7937 10.5754 14.1382C10.4781 13.9119 10.4781 13.657 10.5744 13.4317C10.6706 13.2055 10.855 13.0294 11.0855 12.9434L11.4953 12.7898C12.9684 12.2165 13.8176 11.7793 14.086 11.1159C14.4752 10.1525 13.9374 8.21132 12.2871 4.62594C11.5731 3.07385 10.6932 2.15959 9.67392 1.90773C7.92016 1.47159 5.74743 2.91106 4.05309 4.2113C2.29114 5.56375 1.50338 7.7803 1.89265 10.2948L1.93157 11.0033ZM33.5936 20.2563C33.0989 20.2563 32.6973 19.855 32.6973 19.3605C32.6973 13.6619 28.2371 8.90226 22.5446 8.5255C22.0508 8.49376 21.6769 8.06683 21.7097 7.57335C21.7425 7.07988 22.1727 6.70619 22.6634 6.73792C29.2953 7.17714 34.49 12.7211 34.49 19.3605C34.49 19.855 34.0884 20.2563 33.5936 20.2563ZM26.1492 39.6822C24.8585 39.6822 23.5011 39.3259 21.9266 38.6359C3.27557 31.3617 0.181916 11.4261 0.152209 11.2254C0.148111 11.1978 0.145038 11.1691 0.144014 11.1404L0.111233 10.475C-0.364084 7.43425 0.698209 4.52663 2.96109 2.79025C4.97504 1.24532 7.60465 -0.448057 10.1042 0.167252C11.6797 0.557324 12.9622 1.80535 13.9159 3.87754C15.893 8.17344 16.3724 10.2436 15.7475 11.7875C15.2374 13.0488 14.0399 13.6938 12.6026 14.2774C14.8041 19.0187 17.9469 22.9859 21.9594 26.0932C24.1752 22.3655 26.0047 22.429 32.5721 26.1034C34.8688 27.3873 36.1052 28.9087 36.2486 30.6246C36.4166 32.622 35.1003 34.7167 32.2248 37.0275C29.9855 38.8263 28.1478 39.6822 26.1492 39.6822V39.6822ZM27.0107 20.2563C26.5159 20.2563 26.1144 19.855 26.1144 19.3605C26.1144 17.2361 24.5808 15.4598 22.4686 15.1373C21.9789 15.0625 21.6429 14.6049 21.7177 14.1155C21.7925 13.6271 22.2493 13.2903 22.74 13.3661C25.7333 13.8227 27.907 16.3443 27.907 19.3605C27.907 19.855 27.5055 20.2563 27.0107 20.2563Z" fill="black"/>
</svg>
