<svg width="39" height="42" viewBox="0 0 39 42" fill="none" xmlns="http://www.w3.org/2000/svg">
<path fill-rule="evenodd" clip-rule="evenodd" d="M11 0C11.8853 0 13 1.13155 13 3V7C13 8.86747 11.8853 10 11 10H9C8.11372 10 7 8.86747 7 7L6.999 6H2V15H37V6H31.999L32 7C32 8.86747 30.8843 10 30 10H28C27.1137 10 26 8.86747 26 7L25.999 6H13V4H25.999L26 3C26 1.13155 27.1137 0 28 0H30C30.8843 0 32 1.13155 32 3L31.999 4H38C38.5796 4 38.945 4.32764 38.9943 4.87086L39 5V41C39 41.5757 38.676 41.9445 38.1299 41.9942L38 42H1C0.421289 42 0.0550821 41.6724 0.00571943 41.1291L0 41V5C0 4.42427 0.32487 4.05551 0.870271 4.00576L1 4H6.999L7 3C7 1.13155 8.11372 0 9 0H11ZM37 33.888L30.888 40H37V33.888ZM9.999 32.999L2 32.999V40H10L9.999 32.999ZM19 32.999H10.999L11 40H19V32.999ZM28 32.999H20L20 40H28V32.999ZM37 32.999L29 32.999L29 40H29.111L36.1111 33L37 33.888V32.999ZM9.999 25L2 25V31.999H9.999V25ZM19 25H10.999V31.999H19V25ZM28 25H20V31.999H28V25ZM37 25L29 25V31.999H37V25ZM9.999 17L2 17V24H9.999V17ZM19 17H10.999V24H19V17ZM28 17H20V24H28V17ZM37 17L29 17V24H37V17ZM29.3333 2H28.6667C28.2807 2 28 2.35818 28 2.875V7.125C28 7.64182 28.2807 8 28.6667 8H29.3333C29.7186 8 30 7.64182 30 7.125V2.875C30 2.35818 29.7186 2 29.3333 2ZM10.3333 2H9.66667C9.28133 2 9 2.35818 9 2.875V7.125C9 7.64182 9.28133 8 9.66667 8H10.3333C10.7187 8 11 7.64182 11 7.125V2.875C11 2.35818 10.7187 2 10.3333 2Z" fill="black"/>
</svg>
