<svg width="88" height="8" viewBox="0 0 88 8" fill="none" xmlns="http://www.w3.org/2000/svg">
<path fill-rule="evenodd" clip-rule="evenodd" d="M8 4C8 6.20914 6.20914 8 4 8C1.79086 8 0 6.20914 0 4C0 1.79086 1.79086 0 4 0C6.20914 0 8 1.79086 8 4ZM28 4C28 6.20914 26.2091 8 24 8C21.7909 8 20 6.20914 20 4C20 1.79086 21.7909 0 24 0C26.2091 0 28 1.79086 28 4ZM44 8C46.2091 8 48 6.20914 48 4C48 1.79086 46.2091 0 44 0C41.7909 0 40 1.79086 40 4C40 6.20914 41.7909 8 44 8ZM68 4C68 6.20914 66.2091 8 64 8C61.7909 8 60 6.20914 60 4C60 1.79086 61.7909 0 64 0C66.2091 0 68 1.79086 68 4ZM84 8C86.2091 8 88 6.20914 88 4C88 1.79086 86.2091 0 84 0C81.7909 0 80 1.79086 80 4C80 6.20914 81.7909 8 84 8Z" fill="#E1E1E1"/>
</svg>
