<svg width="35" height="36" viewBox="0 0 35 36" fill="none" xmlns="http://www.w3.org/2000/svg">
    <path fill-rule="evenodd" clip-rule="evenodd"
          d="M34.2005 18C34.2005 8.55596 26.5446 0.900024 17.1005 0.900024C7.65642 0.900024 0.000488281 8.55596 0.000488281 18C0.000488281 27.4441 7.65642 35.1 17.1005 35.1C26.5446 35.1 34.2005 27.4441 34.2005 18ZM3.80049 18C3.80049 10.6546 9.7551 4.7 17.1005 4.7C24.4459 4.7 30.4005 10.6546 30.4005 18C30.4005 25.3454 24.4459 31.3 17.1005 31.3C9.7551 31.3 3.80049 25.3454 3.80049 18ZM19.0005 17.2115V8.38125H15.2005V18.787L21.6346 25.2212L24.3217 22.5342L19.0005 17.2115Z"
          fill="#A1A1A1"/>
</svg>
