<svg width="39" height="26" viewBox="0 0 39 26" fill="none" xmlns="http://www.w3.org/2000/svg">
    <g clip-path="url(#clip0_3175_20316)">
        <path d="M37.5126 4.0938C37.0827 2.49321 35.8236 1.23122 34.2268 0.800291C31.3095 0 19.6402 0 19.6402 0C19.6402 0 7.97087 0 5.05354 0.76951C3.4874 1.20044 2.19764 2.49321 1.76772 4.0938C1 7.01793 1 13.0817 1 13.0817C1 13.0817 1 19.1762 1.76772 22.0696C2.19764 23.6701 3.45669 24.9321 5.05354 25.3631C8.00158 26.1634 19.6402 26.1634 19.6402 26.1634C19.6402 26.1634 31.3095 26.1634 34.2268 25.3938C35.8236 24.9629 37.0827 23.7009 37.5126 22.1003C38.2803 19.1762 38.2803 13.1125 38.2803 13.1125C38.2803 13.1125 38.311 7.01793 37.5126 4.0938Z"
              fill="#FF0000"/>
        <path d="M15.9258 7.47949V18.6836L25.6297 13.0815L15.9258 7.47949Z" fill="white"/>
    </g>
    <defs>
        <clipPath id="clip0_3175_20316">
            <rect width="39" height="26" fill="white"/>
        </clipPath>
    </defs>
</svg>
