<svg width="28" height="28" viewBox="0 0 28 28" fill="none" xmlns="http://www.w3.org/2000/svg">
<circle cx="14" cy="14" r="14" fill="#25D366"/>
<path fill-rule="evenodd" clip-rule="evenodd" d="M19.4618 8.11783C17.9577 6.61941 15.9574 5.79385 13.8264 5.79297C9.4353 5.79297 5.86156 9.34901 5.85979 13.7197C5.8592 15.1168 6.226 16.4807 6.92318 17.6829L5.79297 21.7907L10.0162 20.6883C11.1799 21.32 12.49 21.6528 13.8232 21.6532H13.8265C18.2172 21.6532 21.7913 18.0969 21.793 13.726C21.7938 11.6078 20.966 9.61616 19.4618 8.11783ZM13.8266 20.3144H13.8239C12.6358 20.314 11.4705 19.9962 10.4537 19.396L10.212 19.2532L7.70591 19.9074L8.37484 17.476L8.21734 17.2267C7.5545 16.1776 7.20449 14.9651 7.20508 13.7202C7.20645 10.0874 10.1769 7.13184 13.8293 7.13184C15.5979 7.13242 17.2604 7.81865 18.5105 9.06408C19.7607 10.3095 20.4487 11.9649 20.4481 13.7255C20.4466 17.3586 17.4763 20.3144 13.8266 20.3144ZM17.4593 15.3799C17.2603 15.2807 16.2816 14.8017 16.0991 14.7355C15.9168 14.6694 15.7839 14.6365 15.6513 14.8347C15.5186 15.0329 15.1372 15.4791 15.021 15.6112C14.9048 15.7434 14.7888 15.76 14.5897 15.6608C14.3906 15.5617 13.7493 15.3525 12.9889 14.6777C12.3972 14.1524 11.9977 13.5038 11.8815 13.3056C11.7656 13.1072 11.8806 13.0103 11.9689 12.9014C12.1844 12.6351 12.4001 12.3559 12.4665 12.2238C12.5329 12.0916 12.4996 11.9759 12.4498 11.8768C12.4001 11.7777 12.002 10.8027 11.8362 10.406C11.6745 10.0199 11.5105 10.0721 11.3883 10.066C11.2723 10.0603 11.1395 10.0591 11.0068 10.0591C10.8741 10.0591 10.6584 10.1086 10.4759 10.307C10.2935 10.5053 9.7793 10.9844 9.7793 11.9594C9.7793 12.9344 10.4926 13.8762 10.5921 14.0084C10.6916 14.1406 11.9958 16.1413 13.9925 16.9992C14.4675 17.2035 14.8382 17.3252 15.1273 17.4165C15.6042 17.5673 16.0381 17.546 16.3811 17.495C16.7636 17.4381 17.5587 17.0158 17.7247 16.5532C17.8906 16.0905 17.8906 15.6939 17.8407 15.6112C17.7911 15.5286 17.6583 15.4791 17.4593 15.3799Z" fill="white"/>
</svg>
