<svg width="29" height="28" viewBox="0 0 29 28" fill="none" xmlns="http://www.w3.org/2000/svg">
<path fill-rule="evenodd" clip-rule="evenodd" d="M15.001 0C22.7329 0.00055521 29.0004 6.26881 29 14.0007C28.9996 21.7325 22.7315 28.0002 14.9997 28C7.26781 27.9998 1 21.7319 1 14C1 10.2868 2.47513 6.72569 5.10086 4.10015C7.72659 1.47461 11.2878 -0.000266638 15.001 0Z" fill="#7360F2"/>
<path fill-rule="evenodd" clip-rule="evenodd" d="M19.0166 6.17796C16.3048 5.66464 13.5547 5.66464 10.8424 6.17796C9.65606 6.44089 8.16358 7.86401 7.8718 9.00871C7.38648 11.2236 7.38648 13.4689 7.8718 15.6837C8.16358 16.8284 9.65606 18.2515 10.8424 18.5145L10.8433 18.5146C10.8961 18.525 10.9346 18.5705 10.9346 18.6241V21.8687C10.9346 22.0309 11.1336 22.1108 11.2468 21.9933L12.7956 20.4116L14.2517 18.9242C14.2734 18.9021 14.3034 18.8901 14.3344 18.8909C15.8981 18.934 17.4635 18.8083 19.0166 18.5145C20.2029 18.2516 21.6959 16.8285 21.9871 15.6838C22.473 13.4689 22.473 11.2236 21.9871 9.00876C21.6959 7.86401 20.2035 6.44089 19.0166 6.17796ZM19.0574 15.849C18.8201 16.3503 18.4749 16.7673 17.9769 17.0335C17.8808 17.0849 17.7718 17.1125 17.6618 17.1404L17.6618 17.1404L17.6618 17.1404C17.611 17.1532 17.5599 17.1662 17.5098 17.1815C17.4511 17.1638 17.3932 17.1479 17.3364 17.1323L17.3362 17.1323C17.2167 17.0995 17.1016 17.0679 16.9922 17.0227C15.3196 16.3322 13.7803 15.4414 12.561 14.0758C11.8676 13.2993 11.3248 12.4225 10.8661 11.4947C10.6711 11.1002 10.5035 10.6919 10.3362 10.2842L10.2784 10.1433C10.1079 9.72905 10.3589 9.3011 10.6232 8.98899C10.8712 8.69608 11.1903 8.47191 11.5359 8.3067C11.8056 8.17775 12.0717 8.25209 12.2687 8.4796C12.6946 8.97146 13.0858 9.48848 13.4026 10.0586C13.5973 10.4093 13.5439 10.838 13.1909 11.0766C13.1219 11.1232 13.0579 11.1764 12.9939 11.2294L12.9939 11.2294L12.947 11.2683C12.8769 11.3257 12.8109 11.3837 12.7628 11.4614C12.675 11.6036 12.6708 11.7714 12.7274 11.9261C13.1627 13.1166 13.8965 14.0423 15.1007 14.5409L15.1524 14.5625C15.3282 14.6363 15.5067 14.7113 15.7089 14.6878C15.9494 14.6598 16.0847 14.4801 16.2208 14.2992C16.2951 14.2006 16.3696 14.1016 16.4615 14.0268C16.7161 13.8196 17.0415 13.8169 17.3158 13.9896C17.5902 14.1624 17.8561 14.3478 18.1205 14.5353L18.174 14.5732C18.4154 14.7442 18.6548 14.9137 18.8777 15.109C19.1077 15.3106 19.187 15.5752 19.0574 15.849ZM16.8741 11.9684C16.8346 11.9695 16.7938 11.9716 16.8977 11.9697C16.9156 11.9685 16.9168 11.968 16.9104 11.9679C16.9895 11.9576 17.0678 11.9008 17.0932 11.7918C17.1084 11.7268 17.1021 11.6554 17.0962 11.5873L17.0956 11.5805C17.0091 10.5868 16.4028 10.1505 15.5546 10.0896C15.4189 10.0798 15.2981 10.1762 15.2773 10.2998C15.2544 10.4356 15.3349 10.5529 15.4804 10.5883C15.5432 10.6036 15.6071 10.6094 15.6712 10.6153C15.7439 10.6219 15.8167 10.6285 15.888 10.649C15.9937 10.6792 16.0946 10.7263 16.1837 10.7909C16.3722 10.9276 16.4914 11.1344 16.5464 11.3575C16.5704 11.455 16.5814 11.5559 16.5924 11.6564V11.6564L16.5978 11.7052C16.6158 11.8645 16.7068 11.9626 16.8741 11.9684ZM16.3706 9.69684C16.1103 9.57003 15.8288 9.49121 15.5435 9.44423C15.4659 9.43147 15.3877 9.42182 15.3096 9.41216C15.2622 9.40631 15.2148 9.40046 15.1675 9.39391C15.0157 9.37293 14.9347 9.27664 14.9418 9.12777C14.9486 8.98826 15.051 8.88792 15.2038 8.89651C15.7059 8.92489 16.1908 9.03286 16.6372 9.26806C17.5449 9.74639 18.0634 10.5014 18.2147 11.5096C18.2172 11.5257 18.2201 11.5418 18.2231 11.5579L18.2231 11.5579C18.2285 11.5873 18.2338 11.6167 18.2361 11.6463C18.2421 11.7256 18.2465 11.805 18.2517 11.8967L18.2517 11.8967L18.2588 12.0221C18.2579 12.029 18.2571 12.0382 18.2561 12.0491V12.0492C18.2533 12.0814 18.2492 12.1284 18.2373 12.1734C18.1793 12.3919 17.8463 12.4193 17.7696 12.1987C17.7469 12.1333 17.7435 12.0588 17.7433 11.9883C17.7426 11.5272 17.6418 11.0666 17.4082 10.6654C17.168 10.2532 16.8009 9.90658 16.3706 9.69684ZM18.9091 12.5121C18.9205 12.6686 18.9994 12.8146 19.1747 12.8125C19.3445 12.8105 19.4336 12.6617 19.4214 12.5052C19.4178 12.4594 19.4143 12.4135 19.4108 12.3676C19.3858 12.0408 19.3608 11.7129 19.3033 11.3914C18.92 9.2497 17.1388 7.8087 14.9656 7.73448C15.2277 7.74242 16.9418 7.78937 14.9335 7.73334C14.9211 7.73329 14.9087 7.73309 14.8963 7.73289C14.8663 7.7324 14.8364 7.73192 14.8065 7.73352C14.6514 7.74181 14.5139 7.87089 14.543 8.03299C14.5757 8.21564 14.7602 8.23415 14.9123 8.24941C14.9212 8.25031 14.93 8.25119 14.9386 8.25209C15.0156 8.26013 15.0927 8.26676 15.1699 8.2734C15.3408 8.28809 15.5117 8.30278 15.6799 8.33264C17.302 8.62054 18.6015 9.96222 18.828 11.5839C18.8623 11.8288 18.8791 12.0761 18.8959 12.3233C18.9002 12.3862 18.9045 12.4492 18.9091 12.5121Z" fill="white"/>
</svg>
