<svg width="24" height="22" viewBox="0 0 24 22" fill="none" xmlns="http://www.w3.org/2000/svg">
<path d="M17.3333 5.66663L6.66663 9.66663" stroke="#A1A1A1" stroke-width="2" stroke-linecap="round"/>
<path d="M17.3333 16.3334L6.66663 12.3334" stroke="#A1A1A1" stroke-width="2" stroke-linecap="round"/>
<path fill-rule="evenodd" clip-rule="evenodd" d="M4.00004 13.6667C5.4728 13.6667 6.66671 12.4728 6.66671 11C6.66671 9.52728 5.4728 8.33337 4.00004 8.33337C2.52728 8.33337 1.33337 9.52728 1.33337 11C1.33337 12.4728 2.52728 13.6667 4.00004 13.6667Z" stroke="#A1A1A1" stroke-width="2"/>
<path fill-rule="evenodd" clip-rule="evenodd" d="M20 6.99996C21.4728 6.99996 22.6667 5.80605 22.6667 4.33329C22.6667 2.86053 21.4728 1.66663 20 1.66663C18.5273 1.66663 17.3334 2.86053 17.3334 4.33329C17.3334 5.80605 18.5273 6.99996 20 6.99996Z" stroke="#A1A1A1" stroke-width="2"/>
<path fill-rule="evenodd" clip-rule="evenodd" d="M20 20.3333C21.4728 20.3333 22.6667 19.1394 22.6667 17.6667C22.6667 16.1939 21.4728 15 20 15C18.5273 15 17.3334 16.1939 17.3334 17.6667C17.3334 19.1394 18.5273 20.3333 20 20.3333Z" stroke="#A1A1A1" stroke-width="2"/>
</svg>
