<svg width="28" height="28" viewBox="0 0 28 28" fill="none" xmlns="http://www.w3.org/2000/svg">
<circle cx="14" cy="14" r="14" fill="#0077FF"/>
<path fill-rule="evenodd" clip-rule="evenodd" d="M13.3181 19.2297H14.3339C14.3339 19.2297 14.641 19.1957 14.7972 19.0268C14.9417 18.8716 14.9364 18.5805 14.9364 18.5805C14.9364 18.5805 14.9162 17.2172 15.5495 17.0164C16.1732 16.8187 16.9744 18.334 17.8234 18.9173C18.4652 19.3583 18.9529 19.2616 18.9529 19.2616L21.2237 19.2297C21.2237 19.2297 22.4116 19.1564 21.8485 18.2224C21.8028 18.1459 21.5201 17.5317 20.16 16.2694C18.7362 14.9475 18.9274 15.1622 20.6424 12.8766C21.687 11.4846 22.1046 10.6345 21.9739 10.2711C21.8495 9.92473 21.0813 10.0161 21.0813 10.0161L18.5269 10.031C18.5269 10.031 18.3377 10.0055 18.1964 10.0894C18.0593 10.1723 17.9711 10.3636 17.9711 10.3636C17.9711 10.3636 17.5663 11.441 17.0265 12.357C15.8885 14.2898 15.4326 14.3918 15.2467 14.2717C14.8142 13.9923 14.9226 13.1475 14.9226 12.5482C14.9226 10.6749 15.2063 9.89391 14.369 9.69202C14.0906 9.62508 13.8866 9.58045 13.1757 9.57302C12.264 9.56345 11.4915 9.5762 11.0548 9.78978C10.7637 9.93217 10.5395 10.2499 10.6765 10.2679C10.8455 10.2903 11.228 10.371 11.431 10.6473C11.6934 11.0032 11.6839 11.8044 11.6839 11.8044C11.6839 11.8044 11.8347 14.0093 11.3321 14.2834C10.9868 14.4715 10.514 14.0879 9.49919 12.3336C8.97959 11.4357 8.58644 10.4422 8.58644 10.4422C8.58644 10.4422 8.51099 10.2573 8.37605 10.1585C8.21241 10.0384 7.98289 10.0002 7.98289 10.0002L5.55384 10.015C5.55384 10.015 5.18938 10.0257 5.05549 10.184C4.93648 10.3253 5.04593 10.6165 5.04593 10.6165C5.04593 10.6165 6.94794 15.0655 9.10073 17.3086C11.0761 19.3647 13.3181 19.2297 13.3181 19.2297Z" fill="white"/>
</svg>
